# xmcd CD database file
#
# Track frame offsets:
#	150
#	16100
#	35667
#	53236
#	69104
#	87897
#	108577
#	125111
#	142117
#	165371
#
# Disc length: 2576 seconds
#
# Revision: 0
# Processed by: cddbd v1.5.2PL0 Copyright (c) Steve Scherf et al.
# Submitted via: CDex 1.70beta2
#
DISCID=820a0e0a
DTITLE=Pino Daniele - Il mio nome è Pino Daniele e vivo qui
DYEAR=2006
DGENRE=Blues
TTITLE0=Back home
TTITLE1=Rhum and coca
TTITLE2=Il giorno e la notte
TTITLE3=Salvami
TTITLE4=Vento di passione
TTITLE5=Mardi gras
TTITLE6=Blues del peccatore
TTITLE7=L'Africano
TTITLE8=Ischia sole nascente
TTITLE9=Passo napoletano
EXTD=YEAR: 2006
EXTT0=
EXTT1=
EXTT2=
EXTT3=
EXTT4=
EXTT5=
EXTT6=
EXTT7=
EXTT8=
EXTT9=
PLAYORDER=
